<svg width="18" height="21" viewBox="0 0 18 21" fill="none" xmlns="http://www.w3.org/2000/svg">
<path d="M14.6569 14.784C13.7215 15.7265 11.7667 17.6962 10.4191 19.0541C9.63682 19.8424 8.36358 19.8428 7.58132 19.0545C6.25721 17.7203 4.34026 15.7887 3.34315 14.784C0.218951 11.636 0.218951 6.53197 3.34315 3.38392C6.46734 0.235877 11.5327 0.235877 14.6569 3.38392C17.7811 6.53197 17.7811 11.636 14.6569 14.784Z" stroke="#2D64FC" stroke-width="2" stroke-linecap="round" stroke-linejoin="round"/>
<path d="M12 9.08396C12 10.7535 10.6569 12.1069 9 12.1069C7.34315 12.1069 6 10.7535 6 9.08396C6 7.41446 7.34315 6.06106 9 6.06106C10.6569 6.06106 12 7.41446 12 9.08396Z" stroke="#2D64FC" stroke-width="2" stroke-linecap="round" stroke-linejoin="round"/>
</svg>
