<svg width="108" height="109" viewBox="0 0 108 109" fill="none" xmlns="http://www.w3.org/2000/svg">
<path d="M45.1068 94.4703C59.5767 92.6087 71.2218 83.2701 76.6127 70.8797C71.1576 75.1217 64.5205 78.0153 57.1485 78.9644C35.3047 81.7751 15.302 66.4834 12.4694 44.8084C10.1715 27.2404 19.8648 10.8703 35.2542 3.80412C33.6892 4.05297 32.1475 4.51402 30.6409 5.22392C10.2979 14.7593 -2.55642 37.4741 0.429703 60.3161C3.26224 81.9911 23.265 97.2809 45.1068 94.4703Z" fill="#EC509D"/>
<path d="M12.349 44.7582C14.225 59.1163 23.6364 70.6694 36.1252 76.0187C31.8443 70.6058 28.9301 64.0199 27.9736 56.7011C25.1411 35.0299 40.5519 15.1837 62.3957 12.373C80.1024 10.0948 96.598 19.7112 103.721 34.9817C103.468 33.4307 103.002 31.8991 102.29 30.404C92.6788 10.2183 69.7871 -2.53672 46.7671 0.426324C24.9234 3.23697 9.51451 23.0832 12.349 44.7582Z" fill="#262460"/>
<path d="M62.4947 12.2611C48.0248 14.1227 36.3817 23.4632 30.9888 35.8556C36.4419 31.6078 43.0791 28.7161 50.4549 27.767C72.2987 24.9563 92.3015 40.25 95.134 61.925C97.43 79.493 87.7387 95.8611 72.3473 102.925C73.9143 102.678 75.454 102.217 76.9607 101.509C97.3036 91.9721 110.158 69.2593 107.174 46.4153C104.341 24.7422 84.3385 9.45049 62.4947 12.2611V12.2611Z" fill="#A94483"/>
<path d="M31.1715 20.5966C22.2676 32.0649 20.6871 46.8397 25.7047 59.3844C26.5388 52.5574 29.1691 45.8539 33.7066 40.0088C47.15 22.6955 72.1899 19.472 89.6381 32.8115C103.781 43.6239 108.593 61.9983 102.747 77.7935C103.676 76.5184 104.438 75.1121 104.996 73.5534C112.586 52.5381 105.488 27.4564 87.0991 13.3993C69.6509 0.0597909 44.611 3.28519 31.1715 20.5966Z" fill="#EC509D"/>
<path d="M89.7607 32.7633C78.203 23.9281 63.3152 22.3617 50.6709 27.3407C57.5549 28.1644 64.3086 30.7763 70.2012 35.2807C87.6474 48.6163 90.8941 73.4627 77.4507 90.778C66.5541 104.812 48.0366 109.586 32.1184 103.788C33.4035 104.708 34.8246 105.462 36.3935 106.02C57.5724 113.549 82.8494 106.506 97.016 88.2606C110.459 70.9472 107.211 46.1008 89.7626 32.7633H89.7607Z" fill="#262460"/>
<path d="M77.4584 90.9266C86.3623 79.4583 87.9409 64.6835 82.9213 52.1369C82.0931 58.9677 79.4608 65.6693 74.9214 71.5144C61.478 88.8277 36.4362 92.0493 18.988 78.7098C4.84473 67.8993 0.0350584 49.5249 5.88288 33.7317C4.95166 35.0048 4.19152 36.4131 3.62968 37.9698C-3.9581 58.987 3.13783 84.0687 21.527 98.1258C38.9752 111.463 64.015 108.24 77.4584 90.9266V90.9266Z" fill="#A94483"/>
</svg>
